<?xml version="1.0" standalone="no"?>
<!DOCTYPE svg PUBLIC "-//W3C//DTD SVG 20010904//EN"
 "http://www.w3.org/TR/2001/REC-SVG-20010904/DTD/svg10.dtd">
<svg version="1.0" xmlns="http://www.w3.org/2000/svg"
 width="816.000000pt" height="816.000000pt" viewBox="0 0 816.000000 816.000000"
 preserveAspectRatio="xMidYMid meet">
<metadata>
Created by potrace 1.11, written by Peter Selinger 2001-2013
</metadata>
<g transform="translate(0.000000,816.000000) scale(0.100000,-0.100000)"
fill="#000000" stroke="none">
<path d="M5465 7492 c-3 -3 -18 -7 -33 -8 -51 -3 -116 -15 -122 -22 -3 -4 -16
-8 -30 -10 -13 -1 -27 -6 -30 -11 -6 -10 -51 -26 -63 -23 -5 1 -6 -2 -3 -7 3
-5 -8 -14 -24 -20 -17 -5 -30 -15 -30 -22 0 -7 -3 -9 -6 -6 -7 7 -63 -29 -76
-48 -5 -6 -8 -6 -8 0 0 6 -5 3 -10 -5 -5 -8 -13 -15 -18 -15 -5 0 -15 -7 -24
-15 -24 -23 -58 -50 -62 -50 -3 0 -18 -12 -34 -27 -17 -16 -46 -41 -65 -58
-19 -16 -33 -33 -31 -37 3 -4 -2 -5 -10 -2 -9 3 -17 -2 -21 -15 -3 -12 -10
-19 -15 -16 -5 3 -11 -3 -14 -13 -4 -11 -18 -24 -31 -30 -14 -7 -24 -17 -23
-24 2 -7 -3 -12 -9 -11 -7 2 -13 -2 -13 -7 0 -6 -27 -37 -59 -69 -33 -33 -57
-62 -54 -65 3 -3 -2 -8 -11 -12 -9 -3 -16 -13 -16 -21 0 -8 -4 -11 -10 -8 -5
3 -10 0 -10 -7 0 -7 -11 -22 -25 -32 -14 -10 -25 -25 -25 -32 0 -8 -9 -22 -20
-31 -11 -10 -20 -21 -20 -26 0 -5 -6 -15 -12 -22 -31 -34 -36 -43 -31 -49 4
-3 1 -6 -5 -6 -7 0 -12 -7 -12 -15 0 -8 -4 -15 -10 -15 -5 0 -10 -5 -10 -11 0
-6 -9 -24 -21 -40 -11 -16 -17 -33 -14 -39 3 -5 1 -10 -5 -10 -7 0 -9 -7 -6
-16 4 -10 2 -13 -6 -8 -8 5 -9 2 -5 -9 3 -10 2 -17 -3 -17 -5 0 -12 -10 -15
-23 -4 -13 -14 -23 -25 -23 -10 0 -16 5 -13 10 4 5 -1 7 -10 3 -9 -3 -17 -2
-19 3 -2 5 -24 11 -50 12 -27 2 -48 7 -48 12 0 5 -7 3 -15 -4 -12 -10 -15 -10
-15 0 0 9 -3 10 -13 1 -8 -6 -23 -9 -35 -6 -12 2 -22 0 -22 -4 0 -4 -10 -7
-22 -6 -13 1 -29 -2 -35 -8 -7 -5 -13 -6 -13 -2 0 5 -10 0 -22 -11 -12 -10
-18 -13 -14 -7 5 9 2 11 -8 7 -9 -3 -16 -11 -16 -18 0 -6 -5 -4 -10 4 -5 8
-10 10 -10 4 0 -6 -20 -19 -45 -30 -25 -10 -45 -22 -45 -27 0 -5 -7 -7 -15 -4
-8 4 -17 1 -21 -5 -4 -7 -9 -6 -15 3 -7 12 -9 12 -9 0 0 -11 -3 -11 -15 -1 -8
7 -15 9 -15 5 0 -4 -6 -3 -12 2 -7 5 -28 8 -46 6 -23 -2 -31 1 -26 9 5 7 3 8
-6 3 -7 -4 -30 -7 -52 -7 -24 1 -38 -3 -38 -11 0 -9 -2 -9 -8 1 -9 13 -38 12
-61 -2 -10 -7 -12 -5 -6 3 5 10 2 10 -14 2 -12 -6 -30 -16 -42 -22 -17 -8 -19
-8 -13 3 6 11 5 11 -9 0 -9 -8 -22 -10 -28 -6 -8 4 -9 3 -5 -4 4 -7 1 -12 -8
-12 -9 0 -16 -5 -16 -12 0 -6 -3 -9 -6 -5 -4 3 -12 1 -20 -6 -29 -26 -39 -32
-52 -32 -15 0 -33 26 -26 37 3 4 1 8 -5 8 -14 0 -60 47 -53 54 3 3 -2 6 -12 6
-9 0 -15 4 -11 9 3 5 -4 12 -15 16 -11 3 -20 14 -20 22 0 9 -3 14 -6 11 -3 -4
-14 1 -23 10 -37 35 -59 50 -65 45 -3 -4 -6 1 -6 10 0 9 -7 17 -15 17 -9 0
-27 11 -41 25 -14 14 -30 23 -35 20 -5 -4 -9 1 -9 9 0 10 -6 13 -17 9 -11 -4
-14 -3 -9 5 4 7 1 12 -7 12 -7 0 -23 9 -36 21 -12 11 -29 18 -37 15 -8 -3 -14
0 -14 8 0 8 -18 21 -40 30 -22 9 -40 20 -40 26 0 5 -7 6 -17 3 -9 -4 -14 -2
-10 3 3 5 -6 14 -19 21 -18 8 -23 8 -18 0 3 -7 -1 -4 -9 5 -8 10 -17 15 -20
11 -4 -3 -7 -1 -7 5 0 7 -9 12 -20 12 -11 0 -20 5 -20 10 0 6 -9 10 -20 10
-11 0 -20 5 -20 11 0 5 -4 7 -10 4 -5 -3 -10 -2 -10 4 0 5 -9 8 -20 6 -11 -2
-18 0 -15 6 4 5 -1 9 -9 9 -9 0 -16 4 -16 8 0 4 -10 8 -22 9 -11 1 -24 6 -27
10 -3 5 -16 8 -28 7 -12 -1 -20 2 -18 7 3 4 1 10 -5 14 -5 3 -10 0 -10 -7 0
-9 -3 -9 -8 -2 -9 15 -56 39 -48 25 4 -5 -6 -4 -21 4 -15 8 -34 15 -40 15 -7
0 -13 6 -13 13 0 8 -4 7 -10 -3 -6 -9 -10 -11 -10 -3 0 7 -7 10 -15 7 -8 -4
-15 -1 -15 4 0 6 -8 11 -17 12 -70 4 -80 6 -75 14 3 5 -2 7 -11 3 -9 -3 -19
-3 -21 2 -3 4 -18 7 -33 6 -15 -1 -34 2 -40 8 -9 6 -13 5 -13 -4 0 -11 -2 -11
-10 1 -9 13 -10 13 -10 0 0 -9 -3 -11 -8 -4 -7 11 -52 14 -52 4 0 -3 -15 -7
-33 -7 -29 -1 -57 -5 -97 -15 -8 -1 -22 -11 -31 -20 -9 -10 -19 -15 -23 -11
-3 3 -6 0 -6 -7 0 -7 -3 -11 -6 -7 -3 3 -16 -5 -29 -19 -12 -13 -27 -24 -34
-24 -6 0 -11 -7 -11 -16 0 -8 -5 -12 -10 -9 -6 3 -10 1 -10 -5 0 -6 -5 -8 -12
-4 -6 4 -8 3 -5 -3 4 -6 -4 -19 -18 -29 -13 -10 -21 -22 -18 -27 3 -6 2 -7 -4
-4 -10 6 -48 -26 -72 -61 -8 -12 -18 -19 -23 -16 -4 3 -8 -1 -8 -9 0 -14 -27
-32 -42 -29 -4 1 -4 -6 -1 -16 3 -9 3 -14 -2 -10 -4 4 -18 -6 -30 -22 -12 -16
-26 -26 -30 -22 -5 4 -5 -1 -2 -10 3 -10 2 -17 -3 -15 -11 3 -89 -80 -82 -88
3 -3 0 -5 -7 -5 -7 0 -9 -4 -6 -10 4 -6 -1 -7 -11 -3 -11 4 -15 3 -10 -5 3 -6
-2 -16 -14 -22 -11 -6 -19 -14 -17 -19 1 -5 -12 -22 -30 -39 -17 -17 -29 -33
-25 -36 3 -3 1 -6 -5 -6 -5 0 -18 -15 -28 -34 -11 -19 -22 -33 -26 -30 -4 2
-10 -7 -13 -21 -4 -14 -11 -25 -16 -25 -6 0 -10 -7 -10 -15 0 -8 -10 -24 -22
-36 -13 -12 -16 -18 -8 -14 12 7 13 6 3 -7 -7 -8 -10 -18 -6 -21 3 -4 2 -7 -4
-7 -6 0 -9 -18 -7 -45 3 -30 0 -45 -8 -45 -6 0 -3 -7 8 -16 10 -8 13 -13 7 -9
-7 3 -13 1 -13 -4 0 -6 4 -11 9 -11 5 0 7 -13 6 -30 -1 -16 2 -30 7 -30 6 0 4
-8 -3 -17 -9 -11 -10 -14 -2 -9 9 5 12 -1 9 -23 -2 -17 0 -28 5 -25 4 2 6 -11
5 -31 -2 -19 0 -35 4 -35 4 0 8 -15 8 -32 1 -40 6 -65 15 -74 4 -4 2 -13 -4
-21 -8 -9 -8 -13 0 -13 6 0 11 -10 11 -22 0 -42 6 -88 13 -94 4 -4 7 -24 7
-44 0 -20 6 -42 12 -49 11 -11 10 -12 -2 -6 -12 6 -13 5 -3 -6 17 -17 17 -32
1 -24 -7 4 -6 1 2 -7 8 -7 15 -25 14 -40 -1 -16 3 -28 7 -28 5 0 9 -5 9 -11 0
-5 -6 -7 -13 -3 -8 6 -8 3 1 -9 8 -9 10 -22 6 -28 -5 -8 -3 -9 6 -4 10 6 12 4
7 -8 -4 -10 -1 -17 6 -17 8 0 6 -4 -3 -10 -12 -7 -12 -10 -1 -10 7 0 11 -6 8
-15 -4 -8 -2 -17 4 -21 6 -3 8 -12 5 -20 -3 -8 -1 -14 5 -14 6 0 7 -5 4 -10
-4 -6 -1 -18 7 -27 9 -12 9 -15 1 -9 -9 5 -11 2 -7 -8 3 -9 9 -16 13 -16 4 0
7 -10 8 -22 3 -31 46 -152 58 -160 6 -5 4 -8 -5 -8 -12 0 -12 -2 -2 -9 7 -4
14 -15 16 -23 1 -9 8 -24 16 -34 13 -16 13 -17 0 -9 -11 6 -10 3 2 -12 10 -11
18 -29 18 -41 0 -12 6 -22 14 -22 9 0 13 -9 12 -25 -2 -13 1 -22 5 -19 5 3 9
-1 9 -10 0 -8 4 -16 9 -18 6 -1 12 -15 15 -31 3 -18 1 -25 -6 -21 -6 4 -14 0
-19 -7 -7 -11 -9 -11 -9 -1 0 7 -5 10 -10 7 -6 -4 -7 -11 -4 -17 4 -7 2 -8 -5
-4 -6 4 -9 12 -6 17 4 5 1 9 -5 9 -6 0 -18 7 -27 15 -8 8 -19 13 -24 10 -5 -4
-9 -2 -9 3 0 8 -14 15 -43 20 -4 1 -20 8 -37 17 -16 8 -37 17 -47 18 -10 2
-25 7 -33 10 -8 4 -28 8 -45 11 -16 2 -30 5 -30 7 0 1 -21 3 -47 4 -34 2 -46
0 -41 -8 3 -7 -3 -4 -14 6 -14 12 -23 15 -28 7 -3 -5 -11 -8 -16 -4 -5 3 -17
0 -26 -8 -14 -11 -16 -11 -8 2 8 13 6 13 -8 1 -9 -7 -24 -11 -32 -7 -8 3 -15
1 -15 -4 0 -6 -9 -10 -20 -10 -11 0 -20 -5 -20 -12 0 -6 -3 -8 -7 -5 -3 4 -13
1 -21 -6 -13 -10 -15 -9 -8 3 4 8 -1 5 -10 -7 -9 -13 -22 -23 -30 -23 -7 0
-22 -10 -34 -22 -11 -12 -20 -19 -20 -15 0 4 -9 -2 -20 -13 -11 -11 -20 -25
-20 -31 0 -5 -4 -8 -10 -4 -5 3 -17 -7 -27 -22 -20 -31 -23 -36 -58 -78 -14
-16 -25 -36 -25 -43 0 -7 -5 -10 -12 -6 -7 5 -8 3 -4 -5 5 -7 0 -19 -10 -27
-11 -9 -12 -12 -4 -8 11 6 10 2 -3 -13 -9 -11 -14 -23 -10 -26 3 -4 1 -7 -5
-7 -7 0 -12 -8 -12 -19 0 -10 -8 -29 -18 -42 -10 -13 -18 -31 -17 -39 0 -8 -6
-21 -13 -29 -7 -7 -11 -19 -8 -27 3 -7 0 -14 -5 -16 -5 -2 -11 -13 -12 -26 0
-12 -4 -22 -7 -22 -4 0 -7 -6 -8 -12 -2 -24 -8 -47 -14 -54 -4 -3 -4 -12 -1
-20 3 -8 1 -14 -4 -14 -5 0 -9 -8 -10 -17 -1 -10 -4 -31 -8 -48 -13 -61 -16
-80 -16 -98 0 -9 -4 -15 -10 -12 -5 4 -5 -3 0 -18 6 -16 6 -28 -1 -35 -5 -5
-10 -26 -10 -46 0 -20 -5 -36 -12 -36 -7 0 -7 -3 -1 -8 6 -4 11 -27 11 -52 2
-54 8 -87 17 -96 4 -4 7 -18 7 -31 0 -13 4 -23 10 -23 5 0 6 -7 3 -17 -4 -10
-2 -14 4 -10 6 4 14 0 17 -9 3 -8 2 -13 -3 -9 -5 3 0 -12 12 -34 12 -22 25
-37 29 -35 4 3 5 -2 2 -10 -3 -9 -1 -16 6 -16 6 0 8 -4 5 -10 -3 -6 -1 -10 4
-10 6 0 11 -4 11 -10 0 -9 19 -35 48 -65 6 -8 12 -21 12 -29 0 -9 3 -15 8 -15
19 3 33 -2 27 -10 -3 -5 2 -16 10 -24 8 -9 15 -21 15 -27 0 -7 7 -9 17 -6 10
4 14 4 10 0 -4 -4 7 -20 23 -36 17 -15 30 -33 30 -39 0 -5 5 -7 10 -4 6 3 10
-2 10 -11 0 -10 3 -15 6 -12 3 4 18 -7 33 -23 16 -16 33 -29 40 -29 6 0 10 -3
10 -7 -3 -20 2 -34 10 -28 5 3 16 -2 24 -10 9 -8 20 -15 26 -15 6 0 11 -4 11
-10 0 -5 9 -10 19 -10 11 0 21 -5 23 -11 5 -14 38 0 38 17 0 8 5 14 10 14 12
0 10 59 -2 66 -5 3 -4 13 2 23 5 10 5 22 0 27 -4 5 -10 25 -13 45 -2 20 -8 42
-11 48 -4 6 -9 23 -11 38 -2 16 -8 42 -14 60 -5 17 -7 34 -3 37 3 3 0 6 -7 6
-7 0 -10 4 -6 9 3 5 1 12 -4 16 -6 3 -8 12 -5 20 3 8 2 20 -2 26 -4 7 -9 31
-11 53 -5 57 -8 74 -16 82 -3 4 -3 14 2 23 4 9 7 37 6 63 0 27 4 48 10 48 5 0
3 5 -5 10 -10 6 -11 10 -3 10 7 0 12 3 11 8 -4 12 24 72 33 72 5 0 6 6 3 14
-3 9 3 17 16 21 12 4 19 9 16 13 -3 3 12 16 34 29 22 13 40 28 40 33 0 5 6 7
14 4 7 -3 20 2 29 10 8 8 17 13 20 10 3 -4 12 -2 19 2 16 11 139 14 133 4 -3
-4 5 -8 18 -7 29 1 50 -6 59 -18 5 -6 8 -4 8 4 0 9 7 7 19 -8 11 -12 23 -22
28 -22 16 1 43 -11 43 -19 0 -5 9 -12 20 -15 11 -4 18 -11 15 -16 -4 -5 -1 -9
5 -9 14 0 79 -67 72 -75 -3 -3 2 -5 12 -5 9 0 14 -4 11 -10 -3 -5 -1 -10 5
-10 6 0 9 -4 6 -9 -3 -5 1 -12 10 -15 9 -3 12 -11 8 -18 -4 -7 -4 -10 1 -6 9
9 42 -26 50 -53 4 -11 13 -19 21 -19 8 0 13 -4 10 -9 -3 -5 1 -12 10 -15 9 -4
14 -9 11 -12 -3 -4 16 -29 43 -56 27 -28 52 -59 55 -69 4 -10 13 -19 21 -19 8
0 17 -13 20 -30 4 -16 10 -28 13 -25 9 5 34 -24 44 -48 3 -9 11 -17 17 -17 6
0 9 -4 6 -8 -3 -5 4 -15 15 -22 10 -8 19 -20 19 -28 0 -7 5 -10 10 -7 6 3 10
0 10 -7 0 -7 10 -24 21 -38 11 -14 17 -19 13 -11 -5 9 -3 12 4 7 7 -4 12 -14
12 -22 0 -8 7 -17 15 -20 8 -4 15 -13 15 -21 0 -8 4 -12 9 -8 5 3 12 -4 16
-15 3 -11 13 -20 21 -20 8 0 13 -3 13 -7 -3 -20 2 -34 11 -28 5 3 10 2 10 -3
0 -13 147 -162 160 -162 6 0 8 -4 5 -10 -3 -5 -1 -10 5 -10 6 0 8 -4 5 -10 -3
-6 -1 -10 5 -10 6 0 21 -10 34 -23 13 -13 36 -33 52 -46 16 -12 23 -19 15 -15
-9 5 -12 3 -7 -4 4 -7 13 -12 20 -12 7 0 21 -9 31 -20 10 -11 24 -20 32 -20 8
0 12 -4 8 -9 -5 -9 32 -27 47 -23 5 1 7 -1 5 -6 -1 -4 2 -8 7 -9 5 -1 12 -7
16 -14 19 -30 162 -49 198 -26 6 5 17 5 22 2 6 -3 10 -1 10 5 0 6 4 9 9 5 5
-3 12 -1 16 5 4 6 11 8 16 5 5 -4 9 -1 9 5 0 6 5 8 10 5 6 -4 17 -1 25 5 8 6
19 9 25 5 5 -3 10 -1 10 4 0 6 3 10 8 9 4 -1 17 3 28 10 12 6 24 8 28 5 3 -3
6 -1 6 6 0 7 4 10 9 7 5 -3 11 1 14 9 4 8 15 12 26 10 11 -2 22 3 25 12 4 9
14 13 25 10 15 -3 18 -1 14 11 -5 10 -2 13 6 8 7 -5 18 0 27 10 9 11 12 12 8
4 -4 -8 5 -4 21 10 16 14 25 18 20 10 -5 -8 3 -5 17 8 13 12 30 22 36 22 7 0
12 4 12 8 0 5 12 15 27 23 15 8 42 29 61 47 19 17 38 32 43 32 6 0 8 4 4 9 -3
6 4 15 15 21 11 6 18 15 15 21 -4 5 -1 9 5 9 6 0 8 4 5 10 -3 5 0 7 9 4 11 -4
14 1 12 20 -2 15 0 29 5 32 5 2 4 16 -1 30 -6 14 -8 30 -4 35 3 5 1 9 -3 9
-13 0 -33 59 -22 66 5 3 9 -4 9 -14 0 -11 9 -22 20 -25 11 -3 20 -13 20 -22 0
-9 4 -14 9 -10 21 12 48 -34 45 -78 -2 -56 -23 -137 -35 -137 -5 0 -9 -7 -9
-15 0 -8 -5 -15 -11 -15 -5 0 -8 -4 -4 -9 3 -5 1 -12 -4 -15 -4 -3 -27 -37
-50 -76 -45 -75 -72 -104 -139 -152 -42 -29 -43 -30 -41 -84 1 -30 6 -57 11
-60 4 -3 8 -15 8 -28 0 -12 3 -26 7 -30 5 -4 9 -12 9 -17 1 -5 3 -11 4 -14 1
-3 3 -8 4 -12 1 -5 10 -25 19 -47 9 -21 17 -44 17 -50 0 -7 4 -16 9 -21 4 -6
13 -25 20 -44 10 -32 9 -36 -23 -66 -19 -17 -67 -45 -107 -61 -41 -17 -80 -40
-91 -54 -21 -30 -87 -202 -120 -315 -12 -44 -27 -83 -33 -87 -5 -4 -7 -8 -4
-8 4 0 -4 -42 -16 -92 -13 -51 -26 -109 -30 -128 -3 -19 -7 -44 -10 -55 -17
-88 -22 -203 -24 -480 -1 -176 -6 -348 -11 -383 -8 -49 -15 -301 -11 -369 1
-10 327 -13 1596 -13 l1595 0 1 23 c0 12 3 31 5 42 3 11 7 36 9 55 2 19 7 55
10 80 4 25 7 54 9 65 1 11 -5 28 -13 39 -22 25 -20 152 4 321 2 11 4 20 5 20
1 0 6 40 15 130 23 219 24 633 1 820 -11 93 -62 225 -86 225 -5 0 -12 9 -15
21 -11 35 -13 69 -3 69 13 0 -2 51 -26 88 -29 45 -88 83 -187 122 -46 18 -88
33 -94 35 -5 1 -19 6 -30 10 -11 4 -49 19 -85 33 -121 46 -141 72 -223 281
-27 69 -58 148 -68 174 -15 36 -17 53 -9 68 6 11 14 18 18 16 4 -2 19 10 34
25 15 15 24 28 21 28 -3 0 3 8 15 18 17 15 19 21 9 32 -8 9 -8 11 0 6 12 -6
36 48 26 58 -3 3 0 12 7 21 7 8 8 15 3 15 -12 0 -11 30 2 49 6 10 4 12 -5 6
-10 -6 -12 -4 -7 8 3 9 1 19 -5 23 -7 4 -6 9 3 15 11 7 11 9 -1 9 -13 0 -13 1
0 10 9 6 10 10 3 10 -8 0 -9 9 -3 29 4 16 6 32 3 35 -3 3 0 13 8 23 11 14 11
15 0 9 -9 -6 -8 0 4 17 9 14 16 28 16 31 -3 20 0 26 11 20 6 -4 8 -3 4 4 -3 6
-2 13 4 17 6 4 8 11 5 16 -4 5 1 9 9 9 10 0 13 6 9 18 -3 9 -3 14 1 10 11 -9
35 14 29 28 -2 6 3 14 12 18 9 3 13 11 9 17 -4 7 -3 9 3 6 9 -6 22 28 27 67 1
5 8 11 16 13 9 3 11 1 5 -4 -12 -9 -17 -27 -21 -66 -1 -16 -5 -31 -8 -34 -3
-4 0 -13 7 -21 8 -11 9 -14 0 -9 -8 5 -11 0 -10 -13 1 -11 5 -20 9 -20 4 0 8
-8 8 -18 0 -16 32 -52 46 -52 4 0 15 -10 25 -22 11 -11 19 -18 19 -15 0 4 16
-2 35 -13 20 -11 44 -20 55 -20 11 0 20 -5 20 -11 0 -5 5 -7 10 -4 6 3 10 2
10 -3 0 -6 8 -8 19 -5 10 2 24 -2 32 -9 8 -7 24 -13 37 -12 12 1 22 -3 22 -9
0 -5 7 -4 15 3 11 9 15 9 15 1 0 -7 5 -9 10 -6 6 3 10 0 10 -7 0 -9 3 -9 10 2
6 10 10 11 10 3 0 -7 5 -13 11 -13 5 0 7 6 3 13 -4 6 2 3 14 -7 17 -14 22 -16
22 -5 0 8 3 10 8 4 8 -11 39 -16 90 -15 24 1 31 -3 26 -11 -5 -8 -3 -9 7 -4
17 11 49 14 49 5 0 -9 32 -6 48 4 7 4 12 2 12 -5 0 -8 4 -8 15 1 11 9 15 9 15
1 0 -9 5 -9 22 0 18 10 20 9 14 -7 -6 -17 -5 -17 14 1 13 11 24 15 28 10 11
-16 44 -15 38 0 -3 9 0 12 10 8 8 -3 22 1 31 8 14 12 16 12 9 -1 -4 -8 0 -6 9
5 9 11 19 20 23 20 11 1 62 51 62 61 0 5 8 17 18 26 23 22 38 41 41 53 1 6 12
20 23 32 12 13 18 23 14 23 -4 0 0 7 8 16 9 8 16 22 16 30 0 8 5 12 10 9 6 -4
9 -3 8 2 -5 18 14 53 30 54 10 0 12 3 5 6 -9 3 -5 16 13 44 13 22 22 44 19 49
-3 5 4 14 16 21 17 9 19 13 8 20 -10 6 -11 9 -1 9 6 0 12 7 12 15 0 8 4 15 8
15 10 0 39 80 34 93 -1 5 2 6 7 3 8 -5 26 39 23 57 -1 4 3 7 8 7 5 0 9 3 9 8
-3 19 2 33 11 27 6 -3 7 1 4 9 -4 10 -1 16 7 16 11 0 11 3 -1 10 -8 5 -10 10
-5 10 6 0 17 16 24 35 7 19 16 35 21 35 5 0 7 6 4 14 -3 8 0 17 5 21 6 3 9 10
6 15 -3 5 1 20 10 33 8 13 12 27 8 30 -3 4 0 7 7 7 7 0 10 3 7 6 -3 4 -1 16 6
28 6 11 12 26 13 31 3 28 17 65 26 65 5 0 7 4 4 9 -3 4 4 28 16 52 12 24 21
52 20 62 0 9 3 15 8 12 8 -5 26 51 22 68 -1 4 3 7 9 7 6 0 9 7 5 15 -3 8 1 21
9 29 8 7 11 16 8 20 -4 3 -1 6 6 6 7 0 10 4 7 8 -3 5 2 21 9 36 8 16 12 32 9
37 -3 5 0 9 7 9 7 0 10 3 6 6 -3 4 0 13 8 21 8 8 15 23 15 34 0 10 5 19 10 19
6 0 10 9 10 20 0 14 5 18 17 13 12 -5 15 -2 10 10 -4 10 3 23 18 35 13 11 21
22 18 26 -3 3 1 6 9 6 9 0 25 12 35 26 10 14 27 27 38 28 11 2 19 9 17 16 -1
6 2 9 8 5 6 -4 22 1 37 10 17 12 23 13 17 4 -6 -12 -5 -12 9 0 25 20 167 17
167 -4 0 -5 5 -3 10 5 7 11 10 11 10 2 0 -7 4 -11 9 -7 5 3 12 1 16 -5 4 -6
11 -8 16 -5 5 4 9 1 9 -5 0 -6 4 -9 9 -6 5 3 14 -1 21 -9 7 -8 19 -15 28 -15
8 0 13 -3 9 -6 -7 -8 17 -34 32 -34 6 0 8 -6 5 -13 -2 -7 3 -22 13 -33 10 -11
19 -26 21 -34 2 -8 7 -17 10 -20 7 -5 13 -34 13 -62 0 -10 4 -18 8 -18 7 0 9
-13 14 -87 1 -13 4 -23 7 -23 3 0 5 -19 5 -42 0 -24 3 -58 6 -75 5 -22 3 -33
-5 -33 -7 0 -7 -3 -1 -8 6 -4 10 -29 10 -57 -1 -27 1 -54 4 -60 10 -18 8 -45
-3 -45 -6 0 -5 -4 3 -9 8 -5 11 -16 8 -25 -4 -9 -1 -16 5 -16 7 0 6 -5 -2 -15
-10 -12 -9 -16 4 -21 9 -3 16 -10 16 -16 0 -5 -6 -6 -12 -2 -7 4 0 -5 15 -19
21 -20 34 -26 52 -21 14 3 22 10 19 15 -3 5 2 9 10 9 9 0 16 5 16 10 0 6 10
21 23 34 13 13 22 31 21 40 -1 9 2 14 7 10 5 -3 9 2 9 10 0 9 4 16 9 16 5 0
12 11 15 25 4 14 11 25 17 25 6 0 8 4 4 9 -3 5 0 15 7 23 7 7 14 20 16 28 2 8
7 17 10 20 4 3 8 12 10 20 2 8 10 22 18 31 8 9 14 20 13 25 -3 20 1 35 10 30
4 -3 7 6 5 19 -1 14 1 25 6 25 4 0 11 15 15 33 8 32 10 41 15 55 2 4 4 12 5
17 2 6 4 12 5 15 6 18 12 49 14 73 0 15 7 27 14 27 7 0 10 5 7 10 -4 6 -12 7
-18 3 -7 -4 -7 0 1 10 8 9 11 21 7 27 -3 5 -1 10 6 10 8 0 8 4 -1 15 -7 9 -8
15 -2 15 12 0 11 18 -2 39 -6 9 -5 12 1 8 6 -4 10 6 11 23 0 16 -3 32 -7 35
-5 2 -7 16 -6 30 2 17 -2 25 -13 26 -10 0 -12 3 -5 5 7 3 9 12 6 20 -3 7 -9
11 -14 8 -5 -3 -6 2 -3 10 3 9 1 16 -6 16 -6 0 -8 5 -5 10 3 6 2 10 -3 10 -5
0 -9 7 -10 15 -1 8 -3 22 -4 30 -1 9 -6 14 -13 12 -6 -3 -12 4 -12 14 -1 11
-10 32 -20 47 -10 15 -25 39 -33 55 -7 15 -17 27 -22 27 -5 0 -6 5 -3 10 3 6
1 10 -5 10 -6 0 -8 5 -5 10 3 6 2 10 -2 10 -5 0 -17 17 -28 38 -19 35 -27 46
-83 107 -12 14 -20 25 -16 25 3 0 -10 17 -30 37 -20 21 -36 41 -36 46 0 4 -4
5 -10 2 -9 -6 -14 8 -11 28 1 5 -2 6 -7 3 -4 -2 -18 9 -31 25 -13 16 -29 29
-36 29 -7 0 -16 7 -19 16 -3 8 -10 13 -14 10 -5 -3 -15 4 -22 15 -8 10 -20 19
-28 19 -7 0 -10 5 -6 12 4 6 3 8 -4 4 -6 -3 -17 1 -26 10 -9 8 -20 12 -26 9
-6 -4 -9 -1 -8 7 2 7 -3 12 -11 10 -7 -2 -21 4 -30 11 -9 8 -29 17 -46 21 -65
15 -81 17 -102 19 -13 0 -23 6 -23 12 0 5 -4 4 -9 -4 -6 -10 -10 -10 -16 -1
-5 8 -12 6 -26 -6 -19 -17 -20 -17 -13 0 6 16 4 17 -15 7 -12 -7 -26 -9 -31
-6 -6 3 -10 2 -10 -3 0 -5 -8 -9 -17 -8 -24 1 -93 -24 -93 -33 0 -5 -11 -7
-25 -6 -14 2 -23 0 -20 -5 5 -8 -20 -22 -31 -17 -3 1 -10 -6 -15 -16 -6 -9
-14 -15 -19 -12 -4 3 -10 -2 -14 -10 -3 -8 -12 -15 -21 -15 -8 0 -15 -7 -15
-16 0 -8 -3 -13 -8 -10 -4 2 -16 -2 -27 -10 -10 -8 -16 -14 -13 -14 4 0 -8
-15 -25 -33 -18 -18 -35 -31 -39 -29 -5 2 -8 -4 -8 -12 0 -8 -5 -18 -12 -22
-7 -5 -8 -2 -3 7 6 11 5 11 -4 3 -22 -20 -50 -5 -49 27 1 16 4 29 8 29 4 0 6
16 5 35 -2 19 2 38 7 41 6 4 5 10 -3 15 -11 7 -11 9 -1 9 9 0 11 7 7 19 -3 11
-1 23 6 26 8 6 8 9 -1 15 -9 5 -9 13 -2 27 8 15 8 24 -1 33 -7 7 -7 10 -2 7
12 -6 14 162 2 181 -5 6 -4 12 0 12 5 0 9 9 10 20 1 12 -3 18 -9 14 -7 -4 -7
0 0 12 5 11 6 28 2 39 -4 11 -3 26 2 32 7 9 5 15 -7 19 -10 4 -13 9 -6 13 7 5
8 18 2 39 -7 22 -6 32 1 32 7 0 7 4 1 13 -6 6 -9 22 -8 35 1 13 -2 25 -7 28
-5 3 -4 12 3 20 9 11 8 15 -5 20 -12 5 -13 10 -5 25 7 14 6 19 -3 19 -9 0 -9
3 2 10 8 5 10 10 4 10 -6 0 -10 14 -9 30 1 17 -3 30 -8 30 -5 0 -4 7 3 15 8
10 9 15 2 15 -7 0 -10 15 -8 34 1 21 -2 32 -8 29 -5 -4 -7 1 -3 10 3 10 2 17
-4 17 -6 0 -5 8 2 21 8 15 8 19 0 15 -7 -5 -11 8 -11 38 0 27 -5 46 -11 46 -8
0 -8 4 0 14 10 11 8 17 -6 25 -10 6 -13 11 -6 11 12 0 11 32 -2 62 -4 9 -4 22
0 28 3 5 2 10 -4 10 -5 0 -8 8 -6 18 1 9 -3 34 -10 55 -7 20 -8 34 -3 31 6 -4
4 4 -3 17 -7 13 -14 29 -15 34 -3 25 -17 55 -24 55 -5 0 -27 18 -49 41 -24 23
-46 37 -53 33 -7 -4 -8 -3 -4 4 4 7 -7 18 -28 29 -19 9 -33 20 -30 25 3 4 -2
8 -10 8 -9 0 -16 5 -16 11 0 5 -4 7 -10 4 -5 -3 -10 -2 -10 4 0 5 -9 13 -20
16 -11 4 -17 11 -14 17 4 6 2 8 -4 5 -14 -9 -43 3 -36 14 3 5 -4 9 -15 9 -12
0 -21 5 -21 12 0 6 -3 8 -6 5 -4 -3 -18 3 -32 13 -13 11 -31 20 -38 20 -7 0
-16 5 -20 12 -5 7 -2 8 7 3 8 -5 10 -4 6 0 -4 5 -13 10 -20 11 -32 5 -43 10
-60 29 -10 11 -16 14 -12 5 4 -8 -1 -6 -9 4 -9 11 -19 17 -22 13 -4 -4 -15 3
-25 14 -10 12 -20 16 -23 10 -4 -6 -15 -2 -26 9 -11 11 -27 20 -35 20 -8 0
-15 4 -15 9 0 5 -7 12 -16 15 -10 4 -13 2 -9 -7 4 -6 0 -4 -8 6 -8 9 -19 17
-26 17 -11 0 -50 19 -61 30 -6 6 -30 12 -47 13 -7 0 -13 4 -13 8 0 6 -43 22
-65 23 -5 1 -15 8 -22 16 -10 12 -12 12 -13 1 0 -9 -4 -10 -12 -4 -20 15 -45
22 -53 15z m43 -1129 c16 -2 21 1 16 10 -4 6 2 3 14 -7 12 -11 22 -16 22 -11
0 4 7 2 15 -5 8 -7 15 -10 15 -6 0 4 10 0 23 -9 13 -8 27 -12 32 -8 4 5 5 2 1
-4 -4 -8 -2 -13 5 -13 6 0 18 -8 26 -17 10 -12 12 -13 8 -3 -4 10 -2 9 8 -2 8
-10 20 -18 26 -18 7 0 9 -5 5 -12 -5 -8 -2 -9 10 -5 11 4 15 3 10 -4 -3 -6 3
-19 15 -30 23 -22 66 -99 54 -99 -4 0 -2 -5 4 -11 6 -6 9 -17 7 -24 -3 -7 0
-16 6 -20 8 -5 8 -11 -1 -21 -6 -8 -7 -14 -2 -14 6 0 8 -11 6 -24 -3 -13 0
-27 7 -31 8 -5 8 -10 -1 -21 -8 -10 -8 -14 0 -14 7 0 8 -8 1 -25 -6 -15 -6
-26 1 -30 5 -4 7 -11 4 -16 -10 -15 -14 -50 -6 -45 4 3 8 -15 8 -39 1 -31 -3
-43 -11 -38 -6 3 -2 -3 8 -15 11 -12 15 -22 10 -22 -5 0 -9 -13 -9 -30 0 -16
5 -30 10 -30 7 0 7 -3 0 -8 -5 -4 -10 -26 -10 -50 0 -23 5 -42 10 -42 7 0 7
-3 0 -8 -5 -4 -10 -14 -10 -22 0 -8 5 -18 10 -22 6 -4 1 -8 -10 -8 -11 0 -16
-3 -10 -8 15 -10 16 -52 2 -52 -8 0 -9 -3 -1 -8 14 -9 13 -92 -1 -92 -5 0 -4
-4 3 -9 8 -4 14 -12 14 -16 0 -4 -6 -12 -14 -16 -11 -7 -10 -11 2 -19 11 -7
11 -10 2 -10 -9 0 -10 -5 -3 -18 10 -19 -10 -57 -32 -57 -7 -1 -11 -6 -10 -13
2 -7 -2 -12 -7 -12 -18 0 -25 -2 -42 -11 -11 -6 -18 -6 -18 -1 0 5 -11 8 -25
7 -14 -2 -23 1 -19 6 5 8 -9 13 -28 10 -5 0 -8 4 -8 9 0 6 -8 10 -17 11 -15 0
-15 2 2 9 14 6 15 9 5 10 -8 0 0 7 18 15 17 8 32 20 32 27 0 9 -3 9 -10 -2 -7
-12 -10 -12 -10 -1 0 9 -8 11 -26 7 -18 -5 -24 -3 -19 5 6 8 2 8 -14 0 -13 -7
-21 -8 -21 -2 0 5 -9 8 -20 6 -11 -2 -20 0 -20 5 0 5 -6 7 -13 4 -7 -2 -22 4
-34 15 -11 11 -24 17 -27 14 -3 -4 -6 1 -6 10 0 10 -4 17 -9 17 -12 0 -71 58
-71 70 0 6 -7 10 -17 10 -9 0 -14 3 -10 6 7 8 -36 53 -45 47 -5 -2 -8 1 -8 7
0 6 -13 24 -29 39 -16 16 -27 32 -23 36 4 4 2 6 -3 5 -21 -5 -36 0 -30 10 3 6
0 10 -7 10 -20 0 -71 48 -73 68 0 9 -4 23 -8 29 -4 6 -3 14 3 18 5 3 10 11 10
16 0 6 -4 8 -8 5 -5 -3 -10 18 -11 46 -1 29 -7 56 -14 60 -9 6 -9 8 1 8 10 0
10 5 2 20 -8 15 -8 20 2 21 10 0 10 2 0 6 -6 2 -10 9 -6 14 3 5 -1 9 -8 9 -9
0 -9 3 2 10 11 7 11 10 2 10 -7 0 -11 3 -9 8 3 4 -10 22 -29 40 -19 19 -34 30
-34 26 0 -4 -8 3 -19 14 -10 12 -20 20 -22 18 -2 -2 -10 2 -17 10 -7 8 -8 14
-2 14 5 0 10 7 10 16 0 8 4 13 8 10 5 -3 17 9 27 27 10 17 31 43 46 58 15 15
25 30 22 33 -4 3 -1 6 5 6 6 0 29 18 52 41 22 22 40 38 40 34 0 -3 6 0 14 7 8
7 12 16 9 20 -2 4 3 5 11 2 9 -3 16 -1 16 6 0 6 5 8 10 5 6 -3 10 -1 10 5 0 6
5 8 10 5 6 -3 10 -1 10 5 0 7 7 9 16 6 8 -3 12 -2 9 3 -3 5 -1 12 5 16 5 3 10
1 10 -6 0 -7 7 -4 16 7 8 10 12 12 8 4 -6 -13 -4 -13 12 1 12 10 37 15 67 15
26 -1 47 4 47 9 0 7 3 7 8 0 4 -5 17 -11 30 -12z m-3338 -518 c0 -5 5 -3 10 5
9 13 10 13 10 0 0 -13 1 -13 10 0 6 10 10 11 10 3 0 -7 5 -13 11 -13 5 0 7 6
3 13 -6 9 -5 9 8 0 8 -7 18 -10 21 -6 4 3 7 1 7 -6 0 -6 6 -11 13 -10 23 3 38
-1 33 -9 -2 -4 11 -7 29 -7 19 1 32 -2 29 -7 -5 -7 9 -12 28 -10 3 1 12 -5 18
-13 7 -8 21 -15 31 -15 11 0 19 -4 19 -8 0 -8 51 -36 58 -32 2 1 12 -8 21 -19
10 -12 21 -21 25 -21 4 0 16 -9 27 -19 l20 -19 -22 -16 c-13 -9 -20 -16 -15
-16 5 0 -1 -8 -12 -19 -12 -10 -19 -21 -15 -25 3 -3 1 -6 -5 -6 -7 0 -12 -9
-12 -19 0 -11 -6 -21 -12 -24 -10 -3 -9 -8 2 -22 13 -17 13 -18 0 -10 -13 8
-13 7 -1 -8 11 -14 11 -17 0 -17 -9 0 -10 -3 -3 -8 11 -7 13 -13 17 -69 1 -18
6 -33 10 -33 5 0 5 -5 2 -10 -4 -6 -1 -17 5 -25 10 -12 10 -15 -1 -15 -10 0
-10 -3 -2 -11 6 -6 9 -18 6 -25 -3 -8 0 -14 7 -14 7 0 10 -6 7 -14 -3 -7 0
-19 6 -25 9 -9 6 -13 -11 -17 -12 -4 -19 -10 -17 -15 3 -4 -5 -18 -17 -30 -13
-12 -16 -19 -8 -15 9 5 8 2 -2 -7 -10 -8 -18 -19 -18 -26 0 -6 -5 -11 -10 -11
-6 0 -9 -3 -8 -7 3 -12 -35 -83 -44 -83 -4 0 -4 -7 -1 -17 5 -12 3 -14 -7 -8
-10 6 -12 4 -7 -8 3 -9 -1 -23 -9 -32 -12 -11 -12 -15 -2 -15 8 0 7 -4 -4 -11
-10 -5 -18 -16 -18 -23 0 -8 -7 -17 -16 -20 -8 -3 -13 -10 -10 -15 4 -5 0 -16
-8 -24 -8 -8 -13 -17 -10 -20 8 -8 -28 -47 -38 -41 -4 3 -8 -3 -8 -12 0 -10
-3 -14 -7 -11 -3 4 -15 -1 -26 -10 -15 -13 -19 -14 -13 -3 4 9 2 8 -7 -2 -16
-21 -32 -24 -21 -5 4 6 -2 4 -13 -6 -11 -9 -23 -14 -26 -10 -4 3 -7 1 -7 -5 0
-7 -8 -12 -17 -12 -22 0 -14 -6 20 -14 19 -4 26 -3 22 4 -10 16 1 11 19 -9 17
-19 16 -21 -19 -55 -20 -20 -41 -34 -46 -30 -5 3 -9 1 -9 -4 0 -5 -13 -9 -30
-8 -16 1 -30 5 -30 10 0 5 -7 3 -15 -4 -13 -11 -14 -10 -8 5 5 14 3 17 -9 12
-18 -6 -32 18 -21 35 3 7 1 8 -5 4 -7 -4 -12 -4 -13 1 -3 32 -11 58 -20 64 -6
3 -10 9 -9 13 3 11 -24 96 -31 96 -3 0 -6 10 -5 23 0 12 -4 21 -11 20 -7 -2
-10 3 -7 10 3 8 -1 27 -7 43 -7 16 -11 35 -10 42 1 6 -2 12 -8 12 -5 0 -7 9
-4 20 3 11 0 20 -6 20 -6 0 -11 9 -11 19 0 11 -4 22 -8 25 -5 3 -8 19 -7 35 1
18 -2 28 -8 24 -6 -4 -8 2 -5 15 4 15 0 25 -10 32 -11 6 -12 10 -4 10 9 0 8 7
-4 25 -9 14 -13 25 -10 25 3 0 0 15 -8 34 -8 19 -12 36 -10 39 3 2 0 16 -6 31
-9 26 -14 50 -26 141 -10 71 -9 80 8 115 10 19 18 40 18 47 0 8 7 16 16 20 12
4 12 8 4 13 -9 5 -6 10 9 15 12 3 19 11 16 16 -8 11 90 105 115 111 21 4 39
22 33 31 -3 5 4 4 16 -2 16 -9 21 -9 21 0 0 6 6 9 14 6 8 -3 17 -1 19 6 3 9 9
8 22 -3 10 -8 16 -10 12 -3 -8 13 2 18 38 18 14 0 25 -4 25 -10z m4417 -505
c-1 -10 -3 -17 -6 -15 -2 3 -11 -1 -19 -8 -11 -9 -11 -4 2 16 22 32 25 33 23
7z m-973 -491 c20 3 26 0 20 -11 -5 -8 0 -7 11 2 11 9 16 10 11 3 -4 -8 -1
-13 9 -13 9 0 14 -4 10 -9 -3 -6 3 -8 14 -6 11 2 22 -3 26 -13 5 -14 7 -14 15
-2 8 13 10 12 10 -2 0 -9 5 -20 12 -24 7 -5 8 -3 3 6 -6 10 -4 11 6 4 8 -5 19
-9 24 -9 9 0 10 -10 6 -68 0 -10 -4 -16 -8 -14 -5 3 -9 -6 -10 -20 0 -14 -7
-29 -15 -34 -11 -7 -11 -9 1 -9 12 0 11 -3 -1 -17 -9 -10 -13 -23 -11 -30 2
-6 0 -14 -6 -17 -6 -4 -8 -13 -4 -22 3 -9 0 -14 -8 -12 -8 2 -13 -7 -13 -22
-1 -14 -7 -30 -15 -36 -8 -6 -11 -16 -7 -22 4 -7 2 -12 -4 -12 -6 0 -8 -4 -5
-10 3 -5 1 -10 -5 -10 -6 0 -8 -4 -5 -10 3 -5 1 -10 -5 -10 -6 0 -8 -5 -5 -10
3 -6 0 -12 -7 -15 -7 -3 -14 -17 -14 -31 -1 -14 -10 -32 -20 -40 -11 -9 -12
-12 -4 -8 12 7 13 5 3 -8 -7 -8 -9 -19 -5 -23 4 -5 2 -5 -5 -1 -11 6 -22 -15
-27 -51 -1 -8 -7 -18 -12 -21 -5 -4 -10 -14 -12 -22 -6 -26 -35 -85 -46 -92
-7 -5 -5 -8 4 -8 13 -1 13 -2 -1 -13 -16 -12 -19 -18 -19 -38 0 -5 -4 -7 -10
-4 -5 3 -7 0 -4 -8 3 -8 0 -18 -5 -22 -6 -3 -9 -11 -6 -16 4 -5 1 -9 -6 -9 -7
0 -10 -3 -6 -6 3 -4 -3 -24 -14 -46 -11 -22 -22 -50 -25 -62 -2 -11 -8 -22
-14 -24 -6 -2 -8 -7 -5 -12 6 -10 -20 -62 -28 -54 -3 3 -3 -3 0 -15 3 -12 1
-21 -6 -21 -5 0 -8 -7 -5 -15 4 -8 2 -15 -4 -15 -5 0 -13 -15 -17 -32 -7 -31
-9 -37 -15 -55 -1 -5 -2 -11 -1 -15 0 -5 -4 -8 -10 -8 -6 0 -9 -9 -6 -19 3
-13 1 -18 -8 -14 -9 3 -13 -3 -11 -21 2 -14 -2 -34 -9 -43 -11 -15 -12 -13 -8
12 2 17 5 40 6 53 0 12 5 22 11 22 5 0 6 3 3 7 -4 3 -2 12 4 20 9 10 8 13 -1
13 -9 0 -10 3 -1 13 6 8 8 17 4 21 -4 4 -1 11 7 16 10 6 11 10 3 10 -9 0 -10
7 -5 23 5 12 8 33 7 47 0 14 4 28 10 32 6 5 6 8 -2 8 -9 0 -10 7 -4 23 5 12 8
46 7 75 0 29 3 52 9 52 6 0 3 5 -5 10 -8 5 -10 10 -4 10 7 0 10 34 10 96 -1
53 2 98 7 101 4 2 3 12 -3 22 -6 12 -5 22 2 29 9 9 9 12 1 12 -19 0 -7 34 15
46 12 6 19 14 14 19 -4 4 1 5 10 2 10 -3 17 -3 16 1 0 4 4 18 10 32 6 14 11
19 11 11 2 -30 20 7 23 46 1 7 5 10 10 7 9 -6 21 21 18 40 -1 5 4 12 12 17 7
5 13 12 14 16 5 32 18 73 24 73 3 0 7 6 8 13 1 18 9 57 20 99 5 20 7 39 4 42
-3 4 -1 6 5 6 6 0 10 14 9 31 -1 16 1 32 5 35 4 2 6 13 4 24 -2 11 1 22 7 26
7 4 6 9 -2 14 -8 5 -9 13 -4 21 5 8 9 17 10 22 1 4 2 10 3 15 1 4 5 1 10 -6 4
-8 11 -13 15 -13z m-4310 -340 c-3 -5 -10 -7 -15 -3 -5 3 -7 10 -3 15 3 5 10
7 15 3 5 -3 7 -10 3 -15z m1091 -189 c-3 -13 1 -17 11 -13 10 4 12 0 7 -13 -5
-13 -3 -15 7 -9 10 6 12 4 7 -8 -3 -8 1 -21 9 -28 8 -7 13 -18 10 -26 -3 -7 1
-13 8 -13 8 0 13 -8 12 -17 -3 -18 24 -52 36 -46 4 2 5 -3 2 -12 -4 -9 2 -23
15 -34 11 -10 18 -21 14 -25 -3 -3 -1 -6 5 -6 7 0 12 -6 12 -13 0 -7 9 -19 20
-27 11 -8 20 -18 20 -23 0 -13 27 -37 41 -37 7 0 9 -3 6 -7 -9 -8 61 -73 79
-73 8 0 14 -3 14 -7 0 -5 11 -13 25 -20 15 -7 25 -7 25 -1 0 5 7 3 15 -6 8 -8
15 -22 15 -30 0 -9 5 -16 11 -16 6 0 9 -9 6 -20 -3 -11 -1 -20 5 -20 6 0 8 -7
4 -15 -3 -8 -1 -15 5 -15 6 0 8 -4 4 -9 -3 -5 2 -16 10 -25 10 -10 12 -17 4
-21 -7 -5 -2 -16 13 -33 13 -14 17 -22 10 -18 -7 4 -4 -9 8 -29 11 -19 20 -44
20 -55 0 -10 6 -25 13 -32 6 -7 14 -22 15 -33 2 -11 9 -23 15 -27 8 -5 8 -8
-2 -8 -12 0 -12 -3 1 -17 15 -18 29 -47 34 -72 1 -8 9 -18 16 -22 7 -5 9 -9 4
-9 -5 0 -3 -7 4 -15 7 -8 9 -15 4 -15 -5 0 -4 -4 1 -8 19 -13 38 -61 31 -78
-5 -14 -4 -15 8 -5 12 10 15 7 18 -16 2 -17 8 -27 16 -25 8 1 11 -2 7 -7 -8
-13 24 -63 36 -55 15 9 10 -3 -7 -16 -8 -8 -14 -9 -12 -4 4 15 -35 73 -45 67
-6 -3 -7 -1 -3 5 3 6 -4 20 -16 31 -12 12 -18 21 -12 21 5 0 1 5 -8 11 -10 5
-18 16 -18 22 0 7 -8 20 -17 29 -25 23 -38 40 -57 74 -10 16 -15 21 -12 11 3
-11 2 -15 -4 -12 -6 3 -10 12 -10 19 0 8 -7 19 -15 26 -8 7 -12 17 -8 23 3 6
1 7 -5 3 -7 -4 -12 -2 -12 4 0 6 -4 8 -10 5 -5 -3 -10 3 -10 15 0 12 -4 18
-10 15 -5 -3 -10 -2 -10 3 0 6 -13 24 -30 42 -16 18 -30 36 -30 41 0 5 -7 9
-17 9 -9 0 -14 3 -10 6 3 3 -8 19 -24 35 -16 15 -29 34 -29 40 0 7 -3 9 -7 6
-3 -4 -19 11 -35 33 -17 22 -34 40 -39 40 -6 0 -7 5 -4 10 3 6 -2 10 -11 10
-10 0 -15 3 -11 6 3 4 -11 23 -32 43 -21 20 -43 47 -50 59 -7 12 -16 20 -22
17 -5 -4 -9 3 -9 15 0 12 -4 18 -10 15 -5 -3 -10 -1 -10 5 0 6 -4 8 -10 5 -5
-3 -10 0 -10 7 0 7 -18 32 -39 55 -22 23 -37 44 -34 47 4 3 -1 6 -10 6 -9 0
-17 7 -17 15 0 8 -4 15 -10 15 -5 0 -10 5 -10 10 0 6 -11 23 -24 37 -14 15
-23 30 -20 35 3 4 -2 8 -11 8 -9 0 -13 5 -10 10 3 6 1 10 -4 10 -6 0 -11 7
-11 15 0 8 -4 15 -10 15 -5 0 -10 7 -10 15 0 8 5 15 11 15 5 0 7 5 4 10 -3 6
0 10 7 10 7 0 42 31 78 70 55 59 67 67 77 54 6 -9 10 -24 8 -34z"/>
</g>
</svg>
